<?xml version="1.0" encoding="UTF-8"?>
<svg id="_圖層_2" data-name="圖層 2" xmlns="http://www.w3.org/2000/svg" viewBox="0 0 716.38 386.44">
  <defs>
    <style>
      .cls-1 {
        fill: #5e4c3f;
      }
    </style>
  </defs>
  <g id="_圖層_1-2" data-name="圖層 1">
    <path class="cls-1" d="M519.43,160l-18.63-17.85-10.48,10.67h-50.84v-16.69c6.02-.97,7.96-2.33,8.15-5.04l-28.91-2.72v24.45h-51.23c-.58-3.1-1.36-6.4-2.52-9.9h-3.1c.19,8.93-7.37,16.69-14.17,19.4-4.46,1.94-8.15,5.82-8.15,10.29,0,5.63,4.66,9.12,10.87,9.12,8.93,0,18.82-8.15,17.46-25.03h124c-.97,6.4-2.72,14.75-4.27,20.18l-16.88-11.84-7.76,10.09h-67.72l-21.15-8.54v68.3c16.69,0,19.79-6.79,19.79-7.18v-2.72h25.42v19.02h-43.47l-21.54-8.73v76.26c16.69,0,19.79-6.79,19.79-7.18v-56.47h45.21v21.15c-17.27,.39-31.44,.58-39.97,.58l9.12,22.51c2.13-.39,4.07-1.75,5.43-4.08,31.05-6.4,53.75-11.25,70.05-15.52,1.94,3.3,3.3,6.79,4.07,9.9,2.33,1.94,4.66,2.91,6.79,2.91,5.04,0,8.93-4.46,8.93-10.09,0-7.96-8.15-18.24-33.96-21.15l-1.16,1.75c4.46,2.91,8.93,7.37,12.42,12.23l-22.12,.58v-20.76h46.18v40.36c0,2.13-.78,2.52-3.1,2.52h-23.29v2.52c14.55,1.55,19.99,5.43,19.99,18.24,24.06-2.72,26.58-10.87,26.58-22.7v-35.71c3.88-.78,6.79-2.72,7.96-4.07l-21.93-15.72-8.15,10.67h-44.24v-19.02h26v7.96c15.14,0,20.18-5.82,20.18-6.21v-43.27c3.3-.58,6.02-2.13,6.99-3.49l-1.94-1.36c7.37-4.07,16.49-11.25,21.93-16.69,3.88-.19,5.82-.58,7.37-1.94Zm-100.13,61.12h-25.42v-19.4h25.42v19.4Zm0-23.29h-25.42v-18.82h25.42v18.82Zm45.6,23.29h-26v-19.4h26v19.4Zm0-23.29h-26v-18.82h26v18.82Zm231.69-11.64l-10.67,14.55h-36.67v-41.72c18.63-2.33,38.81-6.6,51.81-10.48,2.52,.78,4.66,1.17,6.4,1.17,2.33,0,4.08-.58,5.24-1.75l-23.48-18.63c-8.34,6.79-23.87,16.69-38.03,23.87l-22.12-6.99v63.06c0,36.67-4.27,72.19-34.93,100.13l2.13,2.52c52.59-27.36,52.97-73.54,52.97-107.31h23.87v106.92h3.69c10.87,0,17.08-4.46,17.08-5.63v-101.29h13.2c5.04,0,7.76-.78,9.31-3.3l-19.79-15.14Zm-99.35,62.09c6.4,0,16.49-3.69,16.69-5.04v-52.59c3.88-.78,6.79-2.33,7.96-3.88l-21.93-15.52-7.96,10.48h-24.45l-23.48-8.54v49.87c0,28.33-.39,61.12-13.19,86.74l2.13,1.75c25.61-21.15,30.27-52.39,31.05-78.01h29.88v14.75h3.3Zm-32.99-18.43v-44.24h29.69v44.24h-29.69Zm-31.24-79.95h83.63c5.24,0,7.96-.97,9.51-3.49l-20.37-15.33-11.06,14.94h-62.87l1.16,3.88Zm127.96-43.8c-2.76,0-4.38-1.11-5.43-5.33l-1.72,.4c.4,1.58,.78,3.34,1.01,5.56,1.75,.61,3.91,1.04,5.93,1.04,5.56,0,8.53-3.2,8.53-7.08,0-1.75-.54-3.17-1.38-4.28-.98-1.31-2.53-2.26-5.22-4.11-3.3-2.26-4.58-3.24-4.58-5.49s1.82-3.5,3.94-3.5c3,0,3.77,1.15,4.48,4.79l1.72-.27c-.34-1.96-.61-3.91-.74-5.26-1.45-.57-3.24-.94-5.36-.94-5.83,0-7.79,3.5-7.79,6.17,0,3.78,2.26,5.29,6.03,7.79,3.3,2.22,4.99,3.37,4.99,6.17s-2.16,4.35-4.42,4.35Zm48.7-4.62h-1.75c-.88,3.81-1.25,4.11-3.2,4.11h-5.06c-.67,0-.94-.13-.94-1.52v-9h3.67c1.52,0,1.79,.24,1.79,3.5h1.65v-8.63h-1.65c0,3.03-.3,3.44-1.82,3.44h-3.64v-8.02c0-1.31,.1-1.58,1.21-1.58h3.91c1.89,0,2.26,.2,3.13,3.94h1.75l-1.08-5.59h-15.77v1.38c2.46,0,2.73,.27,2.73,2.76v16.85c0,2.46-.27,2.8-2.73,2.8v1.35h16.65l1.15-5.8Zm-97.04-15.2v12.5c0,4.52,.81,9,8.7,9,2.7,0,4.58-.74,5.9-2.12,1.42-1.48,2.02-3.61,2.02-6.61v-12.77c0-2.49,.24-2.76,2.33-2.76v-1.38h-6.61v1.38c2.12,0,2.39,.24,2.39,2.76v12.44c0,2.39-.24,7.08-5.29,7.08s-5.29-4.18-5.29-7.15v-12.37c0-2.56,.2-2.76,2.39-2.76v-1.38h-9v1.38c2.26,0,2.46,.27,2.46,2.76Zm-196.56,19.65c-2.36,0-2.53-.24-2.53-2.8v-7.28h2.36l6.13,11.43h5.63v-1.35c-1.38,0-1.95-.27-3.2-2.39l-4.69-8.26c3.74-.71,5.76-3.44,5.76-6.54,0-2.29-.91-3.88-2.43-4.96-1.72-1.25-3.77-1.65-7.01-1.65h-9.4v1.38c2.49,0,2.73,.27,2.73,2.76v16.82c0,2.49-.24,2.83-2.73,2.83v1.35h9.37v-1.35Zm-2.53-20.02c0-1.79,.07-2.12,.88-2.12h1.69c1.79,0,2.93,.44,3.77,1.21,.94,.91,1.38,2.22,1.38,3.74,0,4.28-2.46,5.43-5.76,5.43h-1.96v-8.26Zm112.74,17.33v-8.19h9.94v8.19c0,2.43-.2,2.7-2.26,2.7v1.35h9.07v-1.35c-2.49,0-2.7-.34-2.7-2.8v-16.85c0-2.49,.2-2.76,2.7-2.76v-1.38h-9.07v1.38c2.06,0,2.26,.24,2.26,2.66v7.18h-9.94v-7.21c0-2.39,.2-2.63,2.26-2.63v-1.38h-9.1v1.38c2.49,0,2.73,.27,2.73,2.76v16.85c0,2.46-.24,2.8-2.73,2.8v1.35h9.1v-1.35c-2.06,0-2.26-.27-2.26-2.7Zm50.29,4.55c8.43,0,10.79-6.4,10.79-13.08,0-6.2-2.16-13.08-10.79-13.08-7.92,0-10.72,5.97-10.72,13.08,0,7.65,3,13.08,10.72,13.08Zm-4.45-22.45c1.58-1.99,3.47-2.16,4.45-2.16,5.73,0,6.44,6.47,6.44,11.53,0,3.98-.64,7.21-1.96,9.24-1.04,1.38-2.66,2.26-4.52,2.26-5.73,0-6.4-7.08-6.4-11.49,0-4.89,.74-7.72,1.99-9.37Zm-214.46,.84v16.96c0,2.46-.2,2.8-2.6,2.8v1.35h6.98v-1.35c-2.29,0-2.49-.34-2.49-2.8v-16.52h.1l8.29,20.86h1.38l8.09-20.8h.1v16.45c0,2.46-.17,2.8-2.6,2.8v1.35h9.4v-1.35c-2.49,0-2.7-.3-2.7-2.8v-16.82c0-2.53,.17-2.8,2.66-2.8v-1.38h-6.91l-7.62,19.58h-.1l-7.85-19.58h-6.77v1.38c2.43,0,2.63,.27,2.63,2.66Zm95.35-2.29h3.27v19.25c0,2.49-.17,2.8-3.1,2.8v1.35h10.35v-1.35c-2.97,0-3.13-.3-3.13-2.8v-19.25h3.27c1.99,0,2.33,.13,3.07,4.31h1.65l-.81-6.07h-18.47l-.81,6.07h1.69c.71-4.15,1.01-4.31,3.03-4.31Zm-233.43,113.97l-15.63,39.7-7.39,18.78L124.77,103.63l-5.44-11.58-14.26-30.34-1.99-4.23c-7.12-15.33-12.27-23.43-23.92-33.01C59.23,8.07,32.77,0,0,0V2.47c34.63,0,47.49,7.92,63.31,39.08l11.08,26.32v209.23c0,26.22-6.43,36.6-23.25,36.6v1.49h52.43v-1.49c-16.82,0-23.74-10.39-23.74-36.6V79.24l18.16,39.02,21.34,45.85,5.44,11.69,70.41,143.94c19.5,37.98,40.58,66.68,84.11,66.68,12.86,0,23.25-2.47,32.15-6.92v-2.47c-6.92,1.98-13.85,2.97-19.78,2.97-4.95,0-9.4-.49-13.85-1.98-18.3-4.95-29.12-18.93-53.25-63.11l-25.02-52.16,7.45-18.69,15.75-39.49,48.02-120.39v192.91c0,10.73-1.08,18.81-3.5,24.61-3.5,8.37-9.81,11.99-19.75,11.99v1.49h77.17v-1.49c-9.26,0-15.52-3.15-19.27-10.36-.61-1.16-1.15-2.43-1.63-3.81-1.94-5.59-2.84-12.99-2.84-22.44V105.96c0-5.77,.34-10.77,1.04-15.06,1.07-6.53,2.98-11.41,5.86-14.87,3.82-4.61,9.35-6.67,16.85-6.67v-1.48h-53.92l-51.18,129.99Z"/>
  </g>
</svg>